<svg data-v-423bf9ae="" xmlns="http://www.w3.org/2000/svg" viewBox="0 0 510.2263709588648 163" class="iconAbove"><!----><defs data-v-423bf9ae=""><linearGradient data-v-423bf9ae="" gradientTransform="rotate(25)" id="b2980591-7cde-4d5a-849e-85ac437ba79c" x1="0%" y1="0%" x2="100%" y2="0%"><stop data-v-423bf9ae="" offset="0%" style="stop-color: rgb(8, 199, 214); stop-opacity: 1;"></stop><stop data-v-423bf9ae="" offset="100%" style="stop-color: rgb(2, 2, 62); stop-opacity: 1;"></stop></linearGradient></defs><!----><g data-v-423bf9ae="" id="87fb6d63-7a02-4eaa-814f-d8d5a07d8242" fill="#ffffff" transform="matrix(5.029338077243787,0,0,5.029338077243787,-5.1299286312601,84.69320529495536)"><path d="M7.60 10.75L7.60 12.17L1.02 9.51L1.02 8.30L7.60 5.63L7.60 7.04L2.93 8.89L7.60 10.75ZM16.81 13.75L15.29 13.75L14.59 11.47L11.30 11.47L10.61 13.75L9.07 13.75L12.28 3.95L13.58 3.95L16.81 13.75ZM12.68 6.92L11.70 10.16L14.18 10.16L13.19 6.92L13.19 6.92Q13.03 6.41 12.94 5.89L12.94 5.89L12.94 5.89Q12.84 6.41 12.68 6.92L12.68 6.92ZM23.37 6.43L23.37 6.43L23.37 6.43Q24.36 6.43 24.99 6.79L24.99 6.79L24.99 9.35L23.62 9.35L23.62 7.77L23.62 7.77Q23.52 7.76 23.32 7.76L23.32 7.76L23.32 7.76Q22.25 7.76 21.57 8.29L21.57 8.29L21.57 8.29Q20.89 8.82 20.89 9.81L20.89 9.81L20.89 12.50L22.93 12.50L22.93 13.75L17.96 13.75L17.96 12.50L19.46 12.50L19.46 7.83L17.96 7.83L17.96 6.59L20.79 6.59L20.79 7.77L20.79 7.77Q21.13 7.15 21.85 6.79L21.85 6.79L21.85 6.79Q22.57 6.43 23.37 6.43ZM30.84 13.92L30.84 13.92L30.84 13.92Q28.88 13.92 28.88 12.04L28.88 12.04L28.88 7.83L27.31 7.83L27.31 6.59L28.88 6.59L28.88 4.31L30.28 3.64L30.28 6.59L32.69 6.59L32.69 7.83L30.28 7.83L30.28 11.70L30.28 11.70Q30.28 12.18 30.51 12.42L30.51 12.42L30.51 12.42Q30.73 12.66 31.30 12.66L31.30 12.66L31.30 12.66Q31.93 12.66 32.56 12.29L32.56 12.29L32.41 13.59L32.41 13.59Q31.79 13.92 30.84 13.92ZM38.47 13.92L38.47 13.92L38.47 13.92Q35.78 13.92 35.78 10.78L35.78 10.78L35.78 6.59L37.20 6.59L37.20 10.68L37.20 10.68Q37.20 11.68 37.63 12.13L37.63 12.13L37.63 12.13Q38.05 12.59 38.75 12.59L38.75 12.59L38.75 12.59Q40.42 12.59 40.42 10.71L40.42 10.71L40.42 6.59L41.83 6.59L41.83 13.75L40.42 13.75L40.42 13.05L40.42 13.05Q39.75 13.92 38.47 13.92ZM49.24 6.43L49.24 6.43L49.24 6.43Q50.23 6.43 50.86 6.79L50.86 6.79L50.86 9.35L49.49 9.35L49.49 7.77L49.49 7.77Q49.39 7.76 49.20 7.76L49.20 7.76L49.20 7.76Q48.12 7.76 47.44 8.29L47.44 8.29L47.44 8.29Q46.76 8.82 46.76 9.81L46.76 9.81L46.76 12.50L48.80 12.50L48.80 13.75L43.83 13.75L43.83 12.50L45.33 12.50L45.33 7.83L43.83 7.83L43.83 6.59L46.66 6.59L46.66 7.77L46.66 7.77Q47.00 7.15 47.72 6.79L47.72 6.79L47.72 6.79Q48.44 6.43 49.24 6.43ZM58.53 12.91L58.53 12.91L58.53 12.91Q57.61 13.92 56.06 13.92L56.06 13.92L56.06 13.92Q54.50 13.92 53.59 12.92L53.59 12.92L53.59 12.92Q52.67 11.91 52.67 10.18L52.67 10.18L52.67 10.18Q52.67 8.44 53.59 7.43L53.59 7.43L53.59 7.43Q54.50 6.43 56.06 6.43L56.06 6.43L56.06 6.43Q57.61 6.43 58.53 7.43L58.53 7.43L58.53 7.43Q59.44 8.44 59.44 10.16L59.44 10.16L59.44 10.16Q59.44 11.90 58.53 12.91ZM54.61 11.95L54.61 11.95L54.61 11.95Q55.12 12.60 56.06 12.60L56.06 12.60L56.06 12.60Q56.99 12.60 57.51 11.94L57.51 11.94L57.51 11.94Q58.03 11.28 58.03 10.16L58.03 10.16L58.03 10.16Q58.03 9.04 57.52 8.39L57.52 8.39L57.52 8.39Q57.01 7.74 56.06 7.74L56.06 7.74L56.06 7.74Q55.10 7.74 54.60 8.38L54.60 8.38L54.60 8.38Q54.10 9.02 54.10 10.18L54.10 10.18L54.10 10.18Q54.10 11.30 54.61 11.95ZM63.90 13.75L61.57 13.75L61.57 3.95L63.95 3.95L63.95 3.95Q64.86 3.95 65.59 4.23L65.59 4.23L65.59 4.23Q66.32 4.51 66.80 4.97L66.80 4.97L66.80 4.97Q67.28 5.43 67.61 6.07L67.61 6.07L67.61 6.07Q67.93 6.71 68.07 7.40L68.07 7.40L68.07 7.40Q68.21 8.09 68.21 8.85L68.21 8.85L68.21 8.85Q68.21 9.56 68.08 10.22L68.08 10.22L68.08 10.22Q67.96 10.88 67.64 11.54L67.64 11.54L67.64 11.54Q67.33 12.19 66.85 12.67L66.85 12.67L66.85 12.67Q66.37 13.15 65.61 13.45L65.61 13.45L65.61 13.45Q64.85 13.75 63.90 13.75L63.90 13.75ZM63.00 5.28L63.00 12.40L64.01 12.40L64.01 12.40Q64.75 12.40 65.30 12.09L65.30 12.09L65.30 12.09Q65.84 11.77 66.14 11.24L66.14 11.24L66.14 11.24Q66.44 10.71 66.58 10.12L66.58 10.12L66.58 10.12Q66.72 9.52 66.72 8.85L66.72 8.85L66.72 8.85Q66.72 7.36 66.08 6.32L66.08 6.32L66.08 6.32Q65.44 5.28 64.16 5.28L64.16 5.28L63.00 5.28ZM76.50 9.84L76.50 9.84L76.50 9.84Q76.50 10.37 76.45 10.72L76.45 10.72L71.53 10.72L71.53 10.72Q71.68 11.62 72.18 12.14L72.18 12.14L72.18 12.14Q72.67 12.66 73.47 12.66L73.47 12.66L73.47 12.66Q74.41 12.66 75.10 12.01L75.10 12.01L75.92 12.91L75.92 12.91Q74.91 13.92 73.46 13.92L73.46 13.92L73.46 13.92Q71.90 13.92 71.01 12.87L71.01 12.87L71.01 12.87Q70.11 11.83 70.11 10.16L70.11 10.16L70.11 10.16Q70.11 8.41 71.02 7.42L71.02 7.42L71.02 7.42Q71.92 6.43 73.46 6.43L73.46 6.43L73.46 6.43Q74.79 6.43 75.64 7.29L75.64 7.29L75.64 7.29Q76.50 8.16 76.50 9.84ZM71.50 9.51L71.50 9.51L75.11 9.51L75.11 9.51Q75.07 8.55 74.59 8.11L74.59 8.11L74.59 8.11Q74.12 7.66 73.46 7.66L73.46 7.66L73.46 7.66Q72.59 7.66 72.10 8.14L72.10 8.14L72.10 8.14Q71.61 8.62 71.50 9.51ZM82.57 13.75L81.30 13.75L78.54 6.59L80.01 6.59L81.73 11.26L81.73 11.26Q81.89 11.69 81.96 12.01L81.96 12.01L81.96 12.01Q82.03 11.69 82.18 11.26L82.18 11.26L83.87 6.59L85.33 6.59L82.57 13.75ZM88.51 15.57L87.09 15.57L92.60 3.78L94.01 3.78L88.51 15.57ZM102.47 8.26L102.47 9.46L95.89 12.14L95.89 10.72L100.58 8.86L95.89 7.00L95.89 5.59L102.47 8.26Z"></path></g><!----><g data-v-423bf9ae="" id="9a8a899e-1910-4b7e-82a1-881accb958e8" transform="matrix(2.8125,0,0,2.8125,211,0)" stroke="none" fill="#ffffff"><path d="M9.382 8.675h13.943v13.943L32 31.293V0H.707zM22.618 23.325H8.675V9.382L0 .707V32h31.293z"></path></g><!----></svg>